<svg width="30" height="30" viewBox="0 0 30 30" fill="none" xmlns="http://www.w3.org/2000/svg">
<g id="bell">
<path id="Vector" d="M22.5 16.475V12.5C22.4982 10.7289 21.8697 9.01559 20.7258 7.66347C19.5818 6.31135 17.9963 5.40768 16.25 5.1125V3.75C16.25 3.41848 16.1183 3.10054 15.8839 2.86612C15.6495 2.6317 15.3315 2.5 15 2.5C14.6685 2.5 14.3505 2.6317 14.1161 2.86612C13.8817 3.10054 13.75 3.41848 13.75 3.75V5.1125C12.0037 5.40768 10.4182 6.31135 9.27423 7.66347C8.13031 9.01559 7.50179 10.7289 7.5 12.5V16.475C6.77056 16.7329 6.13875 17.2101 5.69117 17.8412C5.2436 18.4722 5.00217 19.2263 5 20V22.5C5 22.8315 5.1317 23.1495 5.36612 23.3839C5.60054 23.6183 5.91848 23.75 6.25 23.75H10.175C10.4629 24.8092 11.0913 25.7443 11.9632 26.4109C12.8352 27.0776 13.9024 27.4388 15 27.4388C16.0976 27.4388 17.1648 27.0776 18.0368 26.4109C18.9087 25.7443 19.5371 24.8092 19.825 23.75H23.75C24.0815 23.75 24.3995 23.6183 24.6339 23.3839C24.8683 23.1495 25 22.8315 25 22.5V20C24.9978 19.2263 24.7564 18.4722 24.3088 17.8412C23.8613 17.2101 23.2294 16.7329 22.5 16.475ZM10 12.5C10 11.1739 10.5268 9.90215 11.4645 8.96447C12.4021 8.02678 13.6739 7.5 15 7.5C16.3261 7.5 17.5979 8.02678 18.5355 8.96447C19.4732 9.90215 20 11.1739 20 12.5V16.25H10V12.5ZM15 25C14.5637 24.9974 14.1357 24.8806 13.7585 24.6613C13.3814 24.442 13.0681 24.1278 12.85 23.75H17.15C16.9319 24.1278 16.6186 24.442 16.2415 24.6613C15.8643 24.8806 15.4363 24.9974 15 25ZM22.5 21.25H7.5V20C7.5 19.6685 7.6317 19.3505 7.86612 19.1161C8.10054 18.8817 8.41848 18.75 8.75 18.75H21.25C21.5815 18.75 21.8995 18.8817 22.1339 19.1161C22.3683 19.3505 22.5 19.6685 22.5 20V21.25Z" fill="#1B1B1B"/>
</g>
</svg>
