<svg width="17" height="16" viewBox="0 0 17 16" fill="none" xmlns="http://www.w3.org/2000/svg">
<g id="Group 1707480527">
<g id="Group 1707480526">
<g id="Group 1707480525">
<g id="Phone log">
<path id="Vector" fill-rule="evenodd" clip-rule="evenodd" d="M15.3 13.6072C15.3 14.048 14.8807 14.4 14.412 14.4H11.862C11.7555 14.4025 11.6496 14.3837 11.5505 14.3449C11.4515 14.3061 11.3615 14.2479 11.2857 14.1739C11.2099 14.0999 11.15 14.0116 11.1095 13.9143C11.069 13.8169 11.0488 13.7125 11.05 13.6072V11.2072C11.0484 11.1012 11.0682 10.9959 11.1084 10.8975C11.1486 10.7992 11.2082 10.7098 11.2839 10.6346C11.3596 10.5593 11.4497 10.4998 11.5489 10.4596C11.6482 10.4193 11.7546 10.399 11.862 10.4H14.412C14.8815 10.4 15.3 10.7664 15.3 11.2072V13.6072ZM14.412 8.8H11.862C10.4534 8.8 9.35 9.8816 9.35 11.2072V13.6072C9.35 14.9328 10.4534 16 11.862 16H14.412C15.8205 16 17 14.9328 17 13.6072V11.2072C17 9.8816 15.8205 8.8 14.412 8.8ZM5.95 13.6072C5.95 14.048 5.53067 14.4 5.06195 14.4H2.51195C2.40546 14.4025 2.29955 14.3837 2.20055 14.3449C2.10154 14.3061 2.01147 14.2479 1.9357 14.1739C1.85992 14.0999 1.8 14.0116 1.75951 13.9143C1.71901 13.8169 1.69877 13.7125 1.7 13.6072V11.2072C1.69838 11.1012 1.71823 10.9959 1.7584 10.8975C1.79857 10.7992 1.85824 10.7098 1.93389 10.6346C2.00955 10.5593 2.09967 10.4998 2.19894 10.4596C2.29822 10.4193 2.40464 10.399 2.51195 10.4H5.06195C5.53148 10.4 5.95 10.7664 5.95 11.2072V13.6072ZM5.06195 8.8H2.51195C1.10338 8.8 0 9.8816 0 11.2072V13.6072C0 14.9328 1.10338 16 2.51195 16H5.06195C6.47052 16 7.65 14.9328 7.65 13.6072V11.2072C7.65 9.8816 6.47052 8.8 5.06195 8.8ZM15.3 4.8072C15.3 5.248 14.8807 5.6 14.412 5.6H11.862C11.7555 5.60248 11.6496 5.58374 11.5505 5.54489C11.4515 5.50605 11.3615 5.4479 11.2857 5.37392C11.2099 5.29993 11.15 5.21162 11.1095 5.11425C11.069 5.01689 11.0488 4.91246 11.05 4.8072V2.4072C11.0484 2.30116 11.0682 2.19587 11.1084 2.09752C11.1486 1.99918 11.2082 1.90977 11.2839 1.83455C11.3596 1.75934 11.4497 1.69984 11.5489 1.65956C11.6482 1.61928 11.7546 1.59903 11.862 1.6H14.412C14.8815 1.6 15.3 1.9664 15.3 2.4072V4.8072ZM14.412 0H11.862C10.4534 0 9.35 1.0816 9.35 2.4072V4.8072C9.35 6.1328 10.4534 7.2 11.862 7.2H14.412C15.8205 7.2 17 6.1328 17 4.8072V2.4072C17 1.0816 15.8205 0 14.412 0ZM5.95 4.8072C5.95 5.248 5.53067 5.6 5.06195 5.6H2.51195C2.40546 5.60248 2.29955 5.58374 2.20055 5.54489C2.10154 5.50605 2.01147 5.4479 1.9357 5.37392C1.85992 5.29993 1.8 5.21162 1.75951 5.11425C1.71901 5.01689 1.69877 4.91246 1.7 4.8072V2.4072C1.69838 2.30116 1.71823 2.19587 1.7584 2.09752C1.79857 1.99918 1.85824 1.90977 1.93389 1.83455C2.00955 1.75934 2.09967 1.69984 2.19894 1.65956C2.29822 1.61928 2.40464 1.59903 2.51195 1.6H5.06195C5.53148 1.6 5.95 1.9664 5.95 2.4072V4.8072ZM5.06195 0H2.51195C1.10338 0 0 1.0816 0 2.4072V4.8072C0 6.1328 1.10338 7.2 2.51195 7.2H5.06195C6.47052 7.2 7.65 6.1328 7.65 4.8072V2.4072C7.65 1.0816 6.47052 0 5.06195 0Z" fill="black"/>
</g>
</g>
</g>
</g>
</svg>
