<svg width="246" height="25" viewBox="0 0 246 25" fill="none" xmlns="http://www.w3.org/2000/svg">
<path d="M97.7569 10.0519H96.75V10H85.5V15H92.5644C91.5338 17.9106 88.7644 20 85.5 20C81.3581 20 78 16.6419 78 12.5C78 8.35812 81.3581 5 85.5 5C87.4119 5 89.1513 5.72125 90.4756 6.89937L94.0112 3.36375C91.7787 1.28312 88.7925 0 85.5 0C78.5969 0 73 5.59688 73 12.5C73 19.4031 78.5969 25 85.5 25C92.4031 25 98 19.4031 98 12.5C98 11.6619 97.9137 10.8438 97.7569 10.0519Z" fill="#FFC107"/>
<path d="M74.4414 6.68188L78.5483 9.69375C79.6595 6.9425 82.3508 5 85.5002 5C87.412 5 89.1514 5.72125 90.4758 6.89937L94.0114 3.36375C91.7789 1.28312 88.7927 0 85.5002 0C80.6989 0 76.5352 2.71062 74.4414 6.68188Z" fill="#FF3D00"/>
<path d="M85.4992 24.9975C88.728 24.9975 91.6617 23.7619 93.8798 21.7525L90.0111 18.4787C88.7139 19.4652 87.1289 19.9988 85.4992 19.9975C82.248 19.9975 79.4873 17.9244 78.4473 15.0312L74.3711 18.1719C76.4398 22.22 80.6411 24.9975 85.4992 24.9975Z" fill="#4CAF50"/>
<path d="M97.7569 10.0519H96.75V10H85.5V15H92.5644C92.0714 16.3853 91.1833 17.5957 90.01 18.4819L90.0119 18.4806L93.8806 21.7544C93.6069 22.0031 98 18.75 98 12.5C98 11.6619 97.9137 10.8438 97.7569 10.0519Z" fill="#1976D2"/>
<path d="M242.539 13.2818C242.575 17.0649 245.963 18.3241 246 18.3402C245.971 18.4287 245.459 20.1343 244.215 21.8957C243.14 23.4187 242.025 24.936 240.267 24.9678C238.54 24.9983 237.985 23.9749 236.011 23.9749C234.037 23.9749 233.42 24.936 231.785 24.9983C230.089 25.0607 228.797 23.3513 227.713 21.8342C225.498 18.7303 223.806 13.0634 226.078 9.23819C227.207 7.33856 229.225 6.13579 231.415 6.1048C233.081 6.07401 234.653 7.19105 235.671 7.19105C236.689 7.19105 238.6 5.84762 240.609 6.04483C241.449 6.07884 243.81 6.37405 245.326 8.52482C245.204 8.59827 242.509 10.1188 242.539 13.2818ZM239.293 3.99165C240.194 2.93498 240.8 1.46357 240.635 0C239.336 0.0505094 237.767 0.838537 236.835 1.89481C236.001 2.82994 235.27 4.32711 235.467 5.7617C236.914 5.87036 238.392 5.04893 239.293 3.99165Z" fill="black"/>
<path d="M177 2.95938C175.834 3.46419 174.601 3.79969 173.338 3.95554C174.669 3.17213 175.663 1.93161 176.134 0.468979C174.888 1.20232 173.525 1.71875 172.104 1.99591C171.233 1.0724 170.101 0.430361 168.858 0.153197C167.614 -0.123968 166.315 -0.0234406 165.129 0.441717C163.944 0.906875 162.927 1.71516 162.21 2.76156C161.493 3.80796 161.11 5.04411 161.111 6.3094C161.111 6.8094 161.153 7.29018 161.258 7.74787C158.73 7.62484 156.256 6.97354 153.999 5.83655C151.741 4.69956 149.751 3.10249 148.158 1.14975C147.342 2.53795 147.09 4.18267 147.453 5.74902C147.816 7.31536 148.766 8.68555 150.111 9.58058C149.105 9.5538 148.121 9.28733 147.24 8.80365V8.87288C147.242 10.3295 147.749 11.741 148.676 12.8699C149.604 13.9988 150.895 14.7761 152.332 15.071C151.788 15.2132 151.228 15.2831 150.666 15.2787C150.262 15.2858 149.858 15.2497 149.462 15.171C149.873 16.423 150.665 17.5178 151.728 18.3048C152.792 19.0917 154.075 19.5321 155.401 19.5653C153.151 21.3115 150.377 22.2588 147.521 22.2557C147 22.2557 146.5 22.2326 146 22.1691C148.906 24.0279 152.292 25.0111 155.75 24.9999C167.444 24.9999 173.838 15.3845 173.838 7.04979C173.838 6.77094 173.828 6.50171 173.815 6.2344C175.068 5.34398 176.148 4.23416 177 2.95938Z" fill="#03A9F4"/>
<path d="M25 12.5764C25 5.63065 19.4036 0 12.5 0C5.59644 0 0 5.63065 0 12.5764C0 18.8537 4.57107 24.0566 10.5469 25V16.2118H7.37305V12.5764H10.5469V9.80568C10.5469 6.65371 12.4131 4.91266 15.2683 4.91266C16.6359 4.91266 18.0664 5.1583 18.0664 5.1583V8.25327H16.4902C14.9374 8.25327 14.4531 9.22271 14.4531 10.2173V12.5764H17.9199L17.3657 16.2118H14.4531V25C20.4289 24.0566 25 18.8537 25 12.5764Z" fill="#1877F2"/>
</svg>
