<svg width="10" height="9" viewBox="0 0 10 9" fill="none" xmlns="http://www.w3.org/2000/svg">
<path d="M9.84673 8.09661L7.57979 6.05636C8.12558 5.40245 8.42021 4.6065 8.4192 3.78864C8.4192 1.6996 6.53076 0 4.2096 0C1.88844 0 0 1.6996 0 3.78864C0 5.87768 1.88844 7.57728 4.2096 7.57728C5.11833 7.57819 6.00272 7.31302 6.72929 6.82181L8.99624 8.86206C9.11099 8.95438 9.26066 9.00366 9.41452 8.99979C9.56837 8.99591 9.71474 8.93917 9.82358 8.84122C9.93242 8.74327 9.99546 8.61154 9.99976 8.47306C10.0041 8.33459 9.94931 8.19989 9.84673 8.09661ZM1.20274 3.78864C1.20274 3.25341 1.37909 2.7302 1.70949 2.28517C2.03989 1.84014 2.50949 1.49329 3.05893 1.28846C3.60836 1.08364 4.21294 1.03005 4.79621 1.13447C5.37948 1.23889 5.91525 1.49662 6.33577 1.87509C6.75629 2.25355 7.04266 2.73575 7.15868 3.26069C7.2747 3.78564 7.21516 4.32976 6.98757 4.82425C6.75999 5.31873 6.3746 5.74138 5.88012 6.03874C5.38565 6.3361 4.8043 6.49481 4.2096 6.49481C3.41243 6.49395 2.64818 6.20856 2.08449 5.70124C1.5208 5.19392 1.2037 4.5061 1.20274 3.78864Z" fill="black"/>
</svg>
